<?xml version="1.0" encoding="iso-8859-1"?>
<!-- Generator: Adobe Illustrator 19.0.0, SVG Export Plug-In . SVG Version: 6.00 Build 0)  -->
<svg version="1.1" id="Layer_1" xmlns="http://www.w3.org/2000/svg" xmlns:xlink="http://www.w3.org/1999/xlink" x="0px" y="0px"
	 viewBox="0 0 496 496" style="enable-background:new 0 0 496 496;" xml:space="preserve">
<g>
	<g>
		<g>
			<path d="M448.356,208c-1.816-9.28-4.272-18.464-7.344-27.424l37.992-21.936l-40-69.28l-38.016,21.952
				c-6.224-7.128-12.944-13.84-20.072-20.072l21.952-38.016l-69.28-40l-21.936,37.992c-8.96-3.064-18.144-5.528-27.424-7.344V0h-80
				v43.872c-85.912,16.792-153.08,87.248-165.664,174.2L11.532,234.28c-4.848,2.92-7.76,8.048-7.76,13.72s2.904,10.8,7.768,13.72
				l26.88,16.128c11.296,78.592,66.352,143.592,141.808,167.968V496h128v-50.136c1.136-0.368,2.288-0.696,3.424-1.088l21.936,37.992
				l69.28-40l-21.952-38.016c7.128-6.224,13.84-12.944,20.072-20.072l38.016,21.952l40-69.28l-37.992-21.936
				c3.072-8.96,5.528-18.144,7.344-27.424h43.872V208H448.356z M83.324,143.992h88.904V144c4.416,0,8,3.584,8,8v40.912
				c0,4.232-3.304,7.736-7.528,7.984l-116,6.824C61.644,184.704,70.86,163.224,83.324,143.992z M151.156,128
				c7.576-5.904,15.608-11.048,24.048-15.368l6.52,14.632c-1.08,0.56-2.176,1.08-3.24,1.664c-2.016-0.544-4.08-0.928-6.256-0.928
				H151.156z M292.228,480h-96v-29.68c15.656,3.704,31.736,5.68,48,5.68c16.232,0,32.312-1.984,48-5.712V480z M476.228,272h-41.4
				l-1.08,6.728c-2.048,12.744-5.424,25.336-10.016,37.432l-2.424,6.368l35.832,20.688l-24,41.56L397.3,364.08l-4.304,5.264
				c-8.176,10.016-17.4,19.232-27.416,27.416l-5.264,4.304l20.696,35.84l-41.56,24l-20.696-35.832l-6.368,2.424
				c-4.688,1.784-9.528,3.408-14.4,4.832c-34.856,10.176-72.792,10.152-107.48,0.048c-54.488-15.848-98-54.52-120.792-104.376
				h46.512v-16H63.236c-4.504-12.8-7.736-26.192-9.456-40.032l-0.488-3.864L19.772,248l33.656-20.184l0.488-3.864
				c0-0.008,0-0.024,0.008-0.032l119.704-7.048c2.264-0.128,4.4-0.672,6.448-1.384c-4.976,9.776-7.848,20.8-7.848,32.512
				c0,39.704,32.296,72,72,72s72-32.296,72-72c0-39.704-32.296-72-72-72c-18.528,0-35.392,7.096-48.168,18.64
				c0.04-0.584,0.168-1.136,0.168-1.728V152c0-4.552-1.344-8.76-3.552-12.392C208.684,132,226.356,128,244.228,128
				c66.168,0,120,53.832,120,120s-53.832,120-120,120c-11.856,0-23.48-1.808-34.688-5.192c2.104-13.936-8.6-29.488-26.744-37.392
				c-20.704-9-42.072-4.192-48.68,10.984c-6.592,15.16,4.44,34.096,25.12,43.104c7.048,3.064,14.168,4.528,20.76,4.528
				c8.48,0,16.04-2.472,21.472-7.032c11.24,3.728,22.88,5.96,34.768,6.648V408v8h8c92.632,0,168-75.368,168-168s-75.368-168-168-168
				c-44.32,0-85.816,17.088-117.384,48H94.804c29.096-36.216,70.952-61.84,118.704-69.52l6.72-1.088V16h48v41.4l6.728,1.08
				c12.744,2.048,25.336,5.424,37.432,10.016l6.368,2.424l20.696-35.832l41.56,24l-20.696,35.84l5.264,4.304
				c10.016,8.176,19.232,17.4,27.416,27.416l4.304,5.264l35.84-20.696l24,41.56l-35.832,20.696l2.424,6.368
				c4.592,12.096,7.968,24.688,10.016,37.432l1.08,6.728h41.4V272z M188.228,248c0-30.872,25.128-56,56-56s56,25.128,56,56
				s-25.128,56-56,56S188.228,278.872,188.228,248z M189.82,106.144c4.92-1.888,9.936-3.496,15.04-4.856l3.32,15.616
				c-4.008,1.096-7.96,2.392-11.856,3.848L189.82,106.144z M220.532,98.008c5.176-0.808,10.408-1.336,15.696-1.616v15.864
				c-4.152,0.248-8.28,0.72-12.384,1.344L220.532,98.008z M252.228,112.408v-16c5.312,0.28,10.536,0.816,15.696,1.632l-3.336,15.656
				C260.516,113.08,256.404,112.648,252.228,112.408z M280.252,117l3.328-15.648c5.12,1.376,10.128,2.992,15.016,4.872l-6.52,14.632
				C288.212,119.392,284.276,118.104,280.252,117z M306.708,127.328l6.504-14.608c4.704,2.408,9.272,5.024,13.68,7.888
				l-9.424,12.976C313.98,131.344,310.404,129.248,306.708,127.328z M350.372,332.808c2.592-3.24,5.056-6.576,7.344-10.048
				l13.92,8.032c-2.888,4.424-6.04,8.648-9.36,12.736L350.372,332.808z M351.532,355.376c-3.728,3.72-7.656,7.224-11.744,10.544
				l-9.328-12.84c3.208-2.64,6.28-5.44,9.24-8.36L351.532,355.376z M365.668,308.88c1.864-3.696,3.56-7.472,5.088-11.352
				l15.256,4.96c-1.904,4.928-4.016,9.76-6.4,14.44L365.668,308.88z M375.676,282.296c1.04-3.992,1.904-8.04,2.584-12.168
				l15.928,1.672c-0.824,5.248-1.904,10.4-3.256,15.456L375.676,282.296z M379.916,254.224c0.088-2.08,0.312-4.12,0.312-6.224
				s-0.224-4.144-0.312-6.224l15.912-1.672c0.136,2.632,0.4,5.232,0.4,7.896s-0.248,5.264-0.384,7.896L379.916,254.224z
				 M378.26,225.872c-0.68-4.128-1.544-8.176-2.584-12.168l15.232-4.952c1.352,5.056,2.44,10.2,3.272,15.448L378.26,225.872z
				 M370.756,198.472c-1.52-3.88-3.224-7.656-5.088-11.352l13.88-8.016c2.392,4.672,4.52,9.488,6.416,14.424L370.756,198.472z
				 M357.716,173.24c-2.288-3.472-4.752-6.808-7.344-10.048l11.92-10.736c3.312,4.088,6.384,8.368,9.264,12.784L357.716,173.24z
				 M339.692,151.28c-2.96-2.92-6.024-5.72-9.24-8.36l9.392-12.928c4.096,3.328,8.048,6.816,11.776,10.544L339.692,151.28z
				 M326.852,375.336c-4.4,2.864-8.952,5.512-13.648,7.92l-6.496-14.584c3.696-1.92,7.272-4.016,10.76-6.256L326.852,375.336z
				 M298.604,389.816c-4.888,1.872-9.88,3.544-15.008,4.92l-3.344-15.728c4.024-1.112,7.96-2.4,11.824-3.856L298.604,389.816z
				 M267.948,398.104c-5.168,0.816-10.4,1.408-15.72,1.68v-16.192c4.176-0.248,8.296-0.672,12.36-1.288L267.948,398.104z
				 M193.244,362.152c-2.552,5.84-14.504,8.384-27.616,2.68c-13.096-5.704-19.384-16.192-16.832-22.048
				c1.544-3.56,6.584-5.896,13.24-5.896c4.288,0,9.24,0.968,14.376,3.2C189.5,345.792,195.788,356.288,193.244,362.152z"/>
			<rect x="84.228" y="160" width="16" height="16"/>
			<rect x="116.228" y="160" width="48" height="16"/>
		</g>
	</g>
</g>
<g>
</g>
<g>
</g>
<g>
</g>
<g>
</g>
<g>
</g>
<g>
</g>
<g>
</g>
<g>
</g>
<g>
</g>
<g>
</g>
<g>
</g>
<g>
</g>
<g>
</g>
<g>
</g>
<g>
</g>
</svg>
