<?xml version="1.0" encoding="utf-8"?>
<!-- Generator: Adobe Illustrator 16.0.0, SVG Export Plug-In . SVG Version: 6.00 Build 0)  -->
<!DOCTYPE svg PUBLIC "-//W3C//DTD SVG 1.1 Tiny//EN" "http://www.w3.org/Graphics/SVG/1.1/DTD/svg11-tiny.dtd">
<svg version="1.1" baseProfile="tiny" id="Layer_1" xmlns="http://www.w3.org/2000/svg" xmlns:xlink="http://www.w3.org/1999/xlink"
	 x="0px" y="0px" width="24px" height="24px" viewBox="0 0 24 24" xml:space="preserve">
<path fill="#050007" d="M21.069,6.788c-0.244-0.245-0.557-0.379-0.879-0.379l-4.083,0c-0.219,0-0.433,0.062-0.623,0.178
	c0.006-0.059,0.004-0.119-0.006-0.178c-0.188-1.192-0.828-2.249-1.793-2.99l0.943-1.494c0.154-0.245,0.201-0.545,0.127-0.824
	c-0.076-0.284-0.271-0.528-0.537-0.669c-0.161-0.084-0.342-0.129-0.524-0.129c-0.384,0-0.733,0.188-0.935,0.505l-1.063,1.688
	c-0.352-0.077-0.704-0.116-1.057-0.116c-0.358,0-0.716,0.04-1.07,0.119L8.504,0.81c-0.2-0.318-0.549-0.507-0.935-0.507
	c-0.182,0-0.363,0.044-0.522,0.129C6.782,0.571,6.585,0.814,6.509,1.099C6.434,1.378,6.48,1.679,6.636,1.925l0.947,1.5
	c-0.96,0.74-1.597,1.793-1.782,2.983c-0.028,0.179,0.012,0.361,0.11,0.51c-0.047,0.091-0.07,0.196-0.075,0.305
	c-0.171-0.089-0.358-0.15-0.564-0.15c-0.456,0-0.934,0.223-1.309,0.611C3.587,8.07,3.37,8.564,3.369,9.036
	c0,0.073,0.027,0.138,0.038,0.208c0.008,0.327,0.119,0.633,0.351,0.865l2.064,2.064l-0.001,0.878c0,1.395,0.644,2.009,1.356,2.263
	v1.533c0,0.306,0.117,0.585,0.317,0.812H3.813c-0.767,0-1.391,0.62-1.391,1.38c0,0.762,0.624,1.381,1.391,1.381h1.134
	c-0.294,0.347-0.471,0.793-0.471,1.278c0,1.102,0.912,1.998,2.033,1.998c1.12,0,2.032-0.896,2.032-1.998
	c0-0.485-0.177-0.931-0.471-1.278h4.926c-0.293,0.347-0.47,0.793-0.47,1.278c0,1.102,0.912,1.998,2.032,1.998
	s2.032-0.896,2.032-1.998c0-0.485-0.177-0.931-0.471-1.278h1.13c0.766,0,1.391-0.619,1.391-1.381c0-0.761-0.625-1.38-1.391-1.38
	h-3.494c0.201-0.227,0.318-0.506,0.318-0.812v-1.53c0.895-0.318,1.379-1.096,1.379-2.245V9.662c0.196,0.127,0.42,0.196,0.652,0.196
	l4.085,0c0.42,0,0.812-0.225,1.071-0.617c0.203-0.307,0.315-0.7,0.314-1.107C21.578,7.604,21.393,7.112,21.069,6.788z M5.404,10.738
	l-1.182-1.22C4.036,9.234,4.139,8.765,4.498,8.404c0.249-0.249,0.553-0.382,0.81-0.382c0.153,0,0.291,0.047,0.391,0.147
	c0,0,0.173,0.065,0.362,0.116l2.729,2.817c0.282,0.291,0.17,0.877-0.246,1.308c-0.263,0.271-0.584,0.417-0.857,0.417
	c-0.163,0-0.308-0.052-0.413-0.161l-0.73-0.754c0-0.013,0-0.024,0-0.037L5.404,10.738z M6.51,22.978
	c-0.725,0-1.313-0.572-1.313-1.278c0-0.707,0.588-1.279,1.313-1.279s1.313,0.573,1.313,1.279C7.822,22.405,7.234,22.978,6.51,22.978
	z M14.56,22.978c-0.725,0-1.313-0.572-1.313-1.278c0-0.707,0.588-1.279,1.313-1.279s1.313,0.573,1.313,1.279
	C15.872,22.405,15.284,22.978,14.56,22.978z M17.251,18.38c0.37,0,0.67,0.295,0.67,0.66s-0.3,0.661-0.67,0.661H3.813
	c-0.37,0-0.671-0.296-0.671-0.661s0.301-0.66,0.671-0.66H17.251z M10.309,17.66c0.194-0.218,0.31-0.486,0.318-0.778
	c0.008,0.292,0.123,0.56,0.316,0.778H10.309z M14.733,13.074c0,0.993-0.423,1.569-1.379,1.671v2.103c0,0.367-0.45,0.667-1.003,0.667
	c-0.555,0-1.006-0.3-1.006-0.667v-2.083c-0.473-0.001-0.968-0.002-1.439-0.006v2.089c0,0.367-0.45,0.667-1.004,0.667
	c-0.555,0-1.005-0.3-1.005-0.667V14.74c-0.93-0.098-1.356-0.622-1.356-1.688c0-0.058,0-0.126,0-0.2l0.275,0.284
	c0.223,0.229,0.531,0.355,0.869,0.355c0.456,0,0.935-0.223,1.311-0.612c0.682-0.704,0.788-1.691,0.247-2.249L6.549,7.849
	c0-0.368,0.001-0.596,0.001-0.597h8.184C14.733,7.252,14.733,11.975,14.733,13.074z M6.512,6.52c0.195-1.242,0.98-2.292,2.069-2.89
	C8.567,3.617,8.549,3.608,8.539,3.592L7.244,1.54C7.14,1.375,7.201,1.164,7.383,1.068c0.059-0.032,0.124-0.046,0.187-0.046
	c0.13,0,0.256,0.062,0.325,0.171l1.297,2.054C9.21,3.277,9.217,3.311,9.227,3.343C9.668,3.189,10.142,3.1,10.64,3.1
	c0.492,0,0.962,0.089,1.399,0.238c0.009-0.03,0.015-0.062,0.034-0.09l1.294-2.054c0.07-0.11,0.197-0.171,0.327-0.171
	c0.063,0,0.129,0.014,0.188,0.046c0.18,0.095,0.242,0.307,0.139,0.471l-1.296,2.052c-0.009,0.015-0.026,0.021-0.036,0.033
	c1.092,0.599,1.883,1.649,2.079,2.896H6.512z M20.191,9.138l-4.084,0c-0.368,0-0.668-0.452-0.667-1.007
	c-0.001-0.553,0.299-1.003,0.667-1.003l4.083,0c0.369,0,0.667,0.45,0.666,1.005C20.857,8.686,20.56,9.138,20.191,9.138z
	 M12.285,4.297c-0.303,0-0.548,0.246-0.548,0.548c0,0.303,0.245,0.549,0.548,0.549s0.548-0.246,0.548-0.549
	C12.833,4.543,12.588,4.297,12.285,4.297z M8.955,4.297c-0.304,0-0.549,0.246-0.549,0.548c0,0.303,0.245,0.549,0.549,0.549
	c0.303,0,0.548-0.246,0.548-0.549C9.503,4.543,9.258,4.297,8.955,4.297z"/>
</svg>
