<?xml version="1.0" encoding="utf-8"?>
<!-- Generator: Adobe Illustrator 16.0.0, SVG Export Plug-In . SVG Version: 6.00 Build 0)  -->
<!DOCTYPE svg PUBLIC "-//W3C//DTD SVG 1.1 Tiny//EN" "http://www.w3.org/Graphics/SVG/1.1/DTD/svg11-tiny.dtd">
<svg version="1.1" baseProfile="tiny" id="Layer_1" xmlns="http://www.w3.org/2000/svg" xmlns:xlink="http://www.w3.org/1999/xlink"
	 x="0px" y="0px" width="24px" height="24px" viewBox="0 0 24 24" xml:space="preserve">
<path fill="#050007" d="M10.363,4.267c-0.075,0-0.15,0.015-0.222,0.048C9.866,4.438,9.743,4.759,9.867,5.033
	c0.091,0.202,0.289,0.322,0.496,0.322c0.075,0,0.151-0.016,0.224-0.048c0.271-0.122,0.397-0.443,0.271-0.719
	C10.768,4.387,10.57,4.267,10.363,4.267z M23.241,17.005c-0.13-0.643-0.703-1.11-1.363-1.11c-0.092,0-0.187,0.01-0.279,0.029
	l-5.749,1.167c0.193-0.317,0.259-0.682,0.152-1.032l-0.445-1.441c0.751-0.567,0.979-1.448,0.642-2.541
	c-0.228-0.735-0.981-3.174-1.407-4.55c0.036,0.033,0.074,0.066,0.115,0.096c0.294,0.222,0.68,0.359,1.087,0.384
	c0.048,0.002,0.092,0.004,0.136,0.004c0.909,0,1.63-0.555,1.676-1.288l0.249-4.042c0.021-0.321-0.094-0.643-0.322-0.903
	c-0.305-0.345-0.783-0.561-1.314-0.594C16.37,1.181,16.325,1.18,16.279,1.18c-0.91,0-1.63,0.556-1.673,1.292l-0.239,3.851
	c-0.139-0.173-0.35-0.276-0.573-0.276c-0.072,0-0.145,0.01-0.217,0.032l-0.638,0.197l0.649-0.292
	c0.194-0.087,0.342-0.256,0.401-0.461c0.061-0.205,0.028-0.427-0.089-0.606c-0.653-1.001-1.659-1.698-2.829-1.98l0.242-1.719
	c0.044-0.281-0.035-0.579-0.22-0.807c-0.188-0.233-0.472-0.377-0.777-0.396c-0.015-0.001-0.055-0.002-0.069-0.002
	c-0.554,0-1.031,0.407-1.112,0.947L8.86,2.909C8.516,2.981,8.184,3.089,7.868,3.23C7.546,3.375,7.24,3.555,6.953,3.768L5.316,2.681
	C5.134,2.562,4.925,2.5,4.71,2.5c-0.349,0-0.684,0.165-0.895,0.44C3.635,3.167,3.553,3.472,3.599,3.766
	c0.045,0.289,0.212,0.548,0.456,0.711L5.51,5.442C5.057,6.293,4.874,7.245,4.983,8.183L3.932,6.216
	C3.709,5.795,3.249,5.542,2.702,5.542c-0.322,0-0.655,0.085-0.962,0.25c-0.859,0.46-1.239,1.367-0.867,2.062l1.936,3.622
	c0.227,0.422,0.686,0.673,1.228,0.673c0.323,0,0.657-0.086,0.967-0.251c0.392-0.21,0.684-0.514,0.85-0.845
	c0.418,1.363,0.975,3.17,1.182,3.836c0.423,1.375,1.271,1.723,1.949,1.756l0.443,1.441c0.031,0.101,0.075,0.195,0.13,0.282
	L8.54,18.575c-0.752,0.154-1.242,0.887-1.094,1.634c0.13,0.645,0.704,1.112,1.363,1.112c0.093,0,0.188-0.008,0.283-0.028
	l1.064-0.216c-0.206,0.391-0.284,0.849-0.191,1.311c0.19,0.928,1.023,1.599,1.98,1.599c0.138,0,0.276-0.013,0.412-0.041
	c1.098-0.225,1.812-1.286,1.593-2.365c-0.092-0.457-0.342-0.852-0.687-1.135l4.711-0.957c-0.212,0.404-0.278,0.863-0.187,1.313
	c0.187,0.924,1.02,1.596,1.979,1.596c0.139,0,0.277-0.015,0.414-0.042c0.527-0.108,0.984-0.41,1.286-0.852
	c0.305-0.449,0.413-0.986,0.306-1.512c-0.093-0.458-0.343-0.852-0.687-1.134l1.062-0.216C22.902,18.489,23.393,17.755,23.241,17.005
	z M15.337,2.514c0.021-0.345,0.435-0.602,0.942-0.602c0.031,0,0.062,0.001,0.093,0.003c0.546,0.033,0.975,0.356,0.951,0.721
	l-0.249,4.042c-0.021,0.344-0.437,0.602-0.945,0.602c-0.029,0-0.06-0.001-0.09-0.002c-0.549-0.035-0.977-0.358-0.953-0.723
	L15.337,2.514z M4.659,11.251c-0.21,0.111-0.428,0.166-0.623,0.166c-0.261,0-0.48-0.098-0.582-0.287L1.519,7.509
	c-0.177-0.33,0.078-0.81,0.565-1.071c0.207-0.11,0.425-0.164,0.618-0.164c0.263,0,0.484,0.098,0.584,0.288l1.938,3.621
	C5.399,10.511,5.143,10.991,4.659,11.251z M5.821,8.669C5.493,7.468,5.778,6.197,6.52,5.215c-0.019-0.006-0.04-0.006-0.054-0.017
	L4.46,3.868C4.3,3.761,4.27,3.544,4.396,3.385C4.473,3.286,4.592,3.232,4.71,3.232c0.07,0,0.14,0.019,0.201,0.059l2.005,1.33
	C6.944,4.64,6.967,4.667,6.984,4.693c0.34-0.318,0.733-0.592,1.183-0.795c0.444-0.199,0.905-0.31,1.362-0.351
	C9.523,3.516,9.518,3.484,9.522,3.451l0.337-2.382c0.028-0.184,0.2-0.324,0.389-0.324c0.009,0,0.018,0,0.026,0.001
	c0.204,0.011,0.346,0.179,0.316,0.369l-0.338,2.383c-0.003,0.016-0.016,0.031-0.021,0.045c1.233,0.097,2.375,0.728,3.057,1.774
	L5.821,8.669z M9.511,15.872c-0.146,0.029-0.284,0.043-0.412,0.043c-0.67,0-1.105-0.398-1.366-1.244
	c-0.349-1.123-1.69-5.497-1.69-5.497l7.752-2.396c0,0,1.383,4.472,1.704,5.515c0.291,0.939,0.062,1.609-0.813,1.985l0.615,1.993
	c0.106,0.349-0.234,0.765-0.758,0.926c-0.144,0.044-0.285,0.065-0.419,0.065c-0.356,0-0.649-0.148-0.729-0.402l-0.608-1.974
	c-0.451,0.138-0.919,0.282-1.367,0.418l0.612,1.978c0.107,0.348-0.232,0.764-0.759,0.926c-0.143,0.044-0.284,0.065-0.418,0.065
	c-0.356,0-0.65-0.15-0.729-0.402L9.511,15.872z M12.214,23.228c-0.09,0.019-0.18,0.027-0.268,0.027c-0.603,0-1.141-0.411-1.264-1.01
	c-0.137-0.686,0.319-1.359,1.023-1.501c0.09-0.019,0.179-0.027,0.268-0.027c0.602,0,1.14,0.412,1.261,1.01
	C13.373,22.413,12.915,23.085,12.214,23.228z M20.035,21.638c-0.09,0.018-0.18,0.028-0.268,0.028c-0.604,0-1.141-0.412-1.262-1.01
	c-0.14-0.686,0.318-1.358,1.022-1.501c0.09-0.018,0.179-0.028,0.267-0.028c0.603,0,1.14,0.412,1.262,1.01
	C21.197,20.823,20.738,21.495,20.035,21.638z M22.002,17.924L8.945,20.576c-0.045,0.01-0.091,0.013-0.136,0.013
	c-0.31,0-0.583-0.213-0.646-0.523c-0.07-0.354,0.159-0.701,0.521-0.775l13.058-2.65c0.046-0.01,0.091-0.015,0.135-0.015
	c0.309,0,0.583,0.213,0.646,0.523C22.595,17.503,22.364,17.851,22.002,17.924z M7.351,5.619c-0.074,0-0.149,0.015-0.222,0.047
	C6.854,5.79,6.731,6.111,6.854,6.386c0.091,0.201,0.288,0.321,0.496,0.321c0.075,0,0.151-0.016,0.224-0.048
	C7.847,6.537,7.969,6.214,7.847,5.94C7.756,5.738,7.559,5.619,7.351,5.619z"/>
</svg>
