<?xml version="1.0" encoding="iso-8859-1"?>
<!-- Generator: Adobe Illustrator 19.0.0, SVG Export Plug-In . SVG Version: 6.00 Build 0)  -->
<svg version="1.1" id="Layer_1" xmlns="http://www.w3.org/2000/svg" xmlns:xlink="http://www.w3.org/1999/xlink" x="0px" y="0px"
	 viewBox="0 0 512 512" style="enable-background:new 0 0 512 512;" xml:space="preserve">
<g>
	<g>
		<path d="M461.913,5.565c-26.811,0-48.766,21.176-50.026,47.681c-52.002,17.83-138.69,52.493-272.757,52.493H116.87
			c-22.225,0-41.106,14.556-47.636,34.632C29.97,147.153,0,181.436,0,222.609s29.97,75.455,69.234,82.237
			c5.618,17.27,20.377,30.442,38.541,33.79l21.318,126.063c4.09,24.183,24.86,41.736,49.387,41.736
			c30.514,0,53.702-27.421,48.692-57.48l-17.664-105.984c93.9,9.151,145.539,29.512,202.379,49.001
			c1.26,26.505,23.215,47.681,50.026,47.681c27.618,0,50.087-22.469,50.087-50.087V55.652C512,28.034,489.531,5.565,461.913,5.565z
			 M66.783,269.834c-19.435-6.89-33.391-25.459-33.391-47.225s13.956-40.336,33.391-47.226V269.834z M178.479,473.043
			c-8.175,0-15.098-5.851-16.462-13.912l-20.232-119.64c11.07,0.043,22.237,0.348,33.445,0.923l19.005,114.03
			C195.858,464.186,188.359,473.043,178.479,473.043z M197.009,308.373c-19.403-1.504-38.796-2.287-57.878-2.287H116.87
			c-9.206,0.001-16.696-7.489-16.696-16.695V155.826c0-9.206,7.49-16.696,16.696-16.696h22.261c19.083,0,38.476-0.784,57.878-2.287
			V308.373z M411.826,356.65c-44.604-15.292-93.983-34.459-181.426-44.979V133.546c86.614-10.42,135.465-29.223,181.426-44.98
			V356.65z M478.609,389.565c0,9.206-7.49,16.696-16.696,16.696s-16.696-7.49-16.696-16.696c0-4.33,0-329.281,0-333.913
			c0-9.206,7.49-16.696,16.696-16.696s16.696,7.49,16.696,16.696V389.565z"/>
	</g>
</g>
<g>
</g>
<g>
</g>
<g>
</g>
<g>
</g>
<g>
</g>
<g>
</g>
<g>
</g>
<g>
</g>
<g>
</g>
<g>
</g>
<g>
</g>
<g>
</g>
<g>
</g>
<g>
</g>
<g>
</g>
</svg>
