<?xml version="1.0" encoding="iso-8859-1"?>
<!-- Generator: Adobe Illustrator 19.0.0, SVG Export Plug-In . SVG Version: 6.00 Build 0)  -->
<svg version="1.1" id="Layer_1" xmlns="http://www.w3.org/2000/svg" xmlns:xlink="http://www.w3.org/1999/xlink" x="0px" y="0px"
	 viewBox="0 0 511.999 511.999" style="enable-background:new 0 0 511.999 511.999;" xml:space="preserve">
<g>
	<g>
		<path d="M256,0C152.02,0,67.426,84.594,67.426,188.574c0,48.798,30.045,116.158,89.3,200.213
			c43.276,61.388,85.848,108.428,87.64,110.401L256,511.999l11.633-12.812c1.791-1.973,44.365-49.013,87.64-110.401
			c59.255-84.055,89.3-151.416,89.3-200.213C444.574,84.594,359.98,0,256,0z M329.773,370.414
			c-28.911,41.037-58.124,76.182-73.773,94.377c-15.65-18.195-44.862-53.34-73.773-94.377
			c-54.542-77.421-83.372-140.3-83.372-181.84c0-86.651,70.495-157.145,157.145-157.145s157.145,70.494,157.145,157.145
			C413.145,230.114,384.316,292.992,329.773,370.414z"/>
	</g>
</g>
<g>
	<g>
		<path d="M256,62.548c-66.431,0-120.478,54.046-120.478,120.478S189.569,303.503,256,303.503s120.478-54.046,120.478-120.478
			S322.431,62.548,256,62.548z M343.632,167.311h-30.47c-1.273-21.928-5.209-43.225-11.724-60.829
			C323.222,119.464,339.01,141.472,343.632,167.311z M168.369,198.74h30.47c1.273,21.928,5.209,43.225,11.724,60.829
			C188.779,246.588,172.991,224.579,168.369,198.74z M198.839,167.311h-30.47c4.622-25.839,20.41-47.847,42.194-60.829
			C204.048,124.086,200.112,145.383,198.839,167.311z M240.959,114.783c6.288-15.721,12.849-20.806,15.041-20.806
			s8.752,5.085,15.041,20.806c5.624,14.06,9.335,32.637,10.63,52.528h-51.342C231.625,147.42,235.335,128.843,240.959,114.783z
			 M271.042,251.268c-6.289,15.721-12.849,20.806-15.041,20.806s-8.753-5.086-15.041-20.806c-5.625-14.06-9.335-32.636-10.63-52.528
			h51.343C280.376,218.631,276.666,237.208,271.042,251.268z M301.438,259.569c6.514-17.603,10.451-38.901,11.724-60.829h30.47
			C339.01,224.579,323.222,246.588,301.438,259.569z"/>
	</g>
</g>
<g>
</g>
<g>
</g>
<g>
</g>
<g>
</g>
<g>
</g>
<g>
</g>
<g>
</g>
<g>
</g>
<g>
</g>
<g>
</g>
<g>
</g>
<g>
</g>
<g>
</g>
<g>
</g>
<g>
</g>
</svg>
